<svg xmlns="http://www.w3.org/2000/svg" width="24" height="24" viewBox="0 0 24 24"><path d="M22.383 5.968a8.384 8.384 0 0 1-2.402.658 4.196 4.196 0 0 0 1.84-2.314c-.82.488-1.719.83-2.656 1.015a4.182 4.182 0 0 0-7.126 3.814 11.874 11.874 0 0 1-8.62-4.37 4.168 4.168 0 0 0-.566 2.103c0 1.45.738 2.73 1.86 3.48a4.168 4.168 0 0 1-1.894-.522v.052a4.185 4.185 0 0 0 3.355 4.1 4.21 4.21 0 0 1-1.89.073 4.185 4.185 0 0 0 3.907 2.905A8.394 8.394 0 0 1 2 18.694a11.83 11.83 0 0 0 6.41 1.88c7.693 0 11.9-6.373 11.9-11.9 0-.18-.005-.362-.013-.54a8.496 8.496 0 0 0 2.087-2.165l-.001-.001Z"/></svg>
