<svg xmlns="http://www.w3.org/2000/svg" width="17" height="13" viewBox="0 0 17 13"><path fill="#C5CDD3" d="M9.03 3.126c1.009 0 1.737.289 2.184.867.448.578.672 1.405.672 2.482V12l-.076.01a8.222 8.222 0 0 1-.408.023l-.077.001c-.057 0-.147-.003-.272-.009a2.587 2.587 0 0 1-.289-.025V6.866l-.005-.268c-.027-.784-.175-1.374-.446-1.772-.3-.442-.75-.663-1.351-.663-.363 0-.68.074-.952.221a2.02 2.02 0 0 0-.68.595c-.181.25-.32.541-.417.875a3.82 3.82 0 0 0-.144 1.063V12l-.077.01a8.222 8.222 0 0 1-.408.023l-.076.001c-.057 0-.147-.003-.272-.009A2.587 2.587 0 0 1 5.647 12V6.645l-.004-.255c-.025-.745-.163-1.306-.412-1.683-.278-.42-.678-.629-1.199-.629-.351 0-.674.088-.969.263-.295.176-.55.423-.765.74a3.76 3.76 0 0 0-.502 1.13 5.45 5.45 0 0 0-.178 1.437V12l-.077.01a8.222 8.222 0 0 1-.408.023l-.076.001c-.057 0-.147-.003-.272-.009A2.587 2.587 0 0 1 .496 12V3.33l.134-.015.13-.01a3.708 3.708 0 0 1 .756.025c.023.204.04.448.051.731.011.283.017.538.017.765.102-.215.232-.425.391-.629a2.765 2.765 0 0 1 1.3-.926c.278-.097.593-.145.944-.145.329 0 .612.04.85.119.238.08.445.19.62.331.176.142.324.31.442.502.12.193.23.408.332.646.125-.181.266-.368.425-.561a3.15 3.15 0 0 1 .544-.519 2.61 2.61 0 0 1 1.598-.518ZM14.286.141c.294 0 .563.033.806.099.242.066.45.168.62.306.171.138.303.31.396.517.093.208.14.452.14.734 0 .192-.027.381-.081.567a2.566 2.566 0 0 1-.248.567c-.11.192-.25.391-.418.599-.168.207-.363.427-.585.661l-1.161 1.233H16.5l.008.074.006.079a2.92 2.92 0 0 1 0 .297A1.795 1.795 0 0 1 16.5 6h-3.924l-.045-.117 1.755-1.872.177-.19c.115-.125.226-.248.332-.368.159-.18.296-.36.414-.54.117-.18.21-.358.279-.535a1.51 1.51 0 0 0 .103-.554c0-.378-.111-.659-.333-.842-.222-.182-.543-.274-.963-.274-.306 0-.575.039-.806.117a6.016 6.016 0 0 0-.616.243 3.208 3.208 0 0 1-.085-.257 12.984 12.984 0 0 1-.077-.274c.162-.078.378-.164.648-.257s.579-.139.927-.139Z"/></svg>
